<svg xmlns="http://www.w3.org/2000/svg" xmlns:xlink="http://www.w3.org/1999/xlink" width="257" zoomAndPan="magnify" viewBox="0 0 192.75 139.500001" height="186" preserveAspectRatio="xMidYMid meet" version="1.0"><defs><g/><clipPath id="5b9e002590"><path d="M 86 4 L 112 4 L 112 92 L 86 92 Z M 86 4 " clip-rule="nonzero"/></clipPath><clipPath id="5f48cde464"><path d="M 56.378906 21.652344 L 103.195312 0.0390625 L 135.457031 69.925781 L 88.640625 91.539062 Z M 56.378906 21.652344 " clip-rule="nonzero"/></clipPath><clipPath id="763d69f665"><path d="M 56.378906 21.652344 L 103.195312 0.0390625 L 135.457031 69.925781 L 88.640625 91.539062 Z M 56.378906 21.652344 " clip-rule="nonzero"/></clipPath><clipPath id="ab439158f1"><path d="M 56.378906 21.652344 L 103.195312 0.0390625 L 135.457031 69.925781 L 88.640625 91.539062 Z M 56.378906 21.652344 " clip-rule="nonzero"/></clipPath><clipPath id="683730b679"><rect x="0" width="179" y="0" height="34"/></clipPath></defs><g clip-path="url(#5b9e002590)"><g clip-path="url(#5f48cde464)"><g clip-path="url(#763d69f665)"><g clip-path="url(#ab439158f1)"><path fill="#000000" d="M 94.847656 4.699219 C 98.164062 7.933594 101.234375 11.503906 105.117188 14.089844 C 105.878906 14.59375 111.699219 17.453125 111.425781 18.132812 C 110.59375 18.441406 109.753906 19.238281 108.855469 18.851562 C 105.835938 17.019531 102.40625 15.46875 99.769531 13.09375 C 99.578125 12.921875 98.222656 10.914062 98.167969 12.046875 C 98.140625 12.648438 99.011719 14.632812 99.199219 15.503906 C 100.644531 22.148438 102.140625 30.039062 102.699219 36.785156 C 103.925781 51.539062 100.800781 77.457031 91.507812 89.351562 C 90.878906 90.15625 89.242188 92.167969 88.308594 90.589844 C 87.707031 89.574219 88.816406 89.214844 89.269531 88.527344 C 102.195312 68.714844 102.15625 40.757812 97.289062 18.320312 C 96.980469 16.910156 96.582031 15.335938 96.023438 14.011719 C 95.65625 13.828125 93.183594 20.988281 92.910156 21.542969 C 92.292969 22.78125 90.316406 25.867188 89.046875 26.089844 C 88.132812 26.25 86.324219 24.089844 86.203125 23.261719 C 86.109375 22.597656 88.113281 19.933594 88.558594 19.058594 C 89.480469 17.25 91.582031 12.398438 91.976562 10.429688 C 92.167969 9.476562 92.1875 5.640625 92.597656 5.0625 C 93.003906 4.484375 94.191406 4.539062 94.835938 4.703125 Z M 94.847656 4.699219 " fill-opacity="1" fill-rule="nonzero"/></g></g></g></g><g transform="matrix(1, 0, 0, 1, 7, 94)"><g clip-path="url(#683730b679)"><g fill="#000000" fill-opacity="1"><g transform="translate(0.671532, 24.696089)"><g><path d="M 15.328125 -15.625 C 15.367188 -15.488281 15.390625 -15.347656 15.390625 -15.203125 C 15.390625 -14.316406 15.101562 -13.875 14.53125 -13.875 C 14.46875 -13.875 14.304688 -13.910156 14.046875 -13.984375 C 13.785156 -14.066406 13.5 -14.144531 13.1875 -14.21875 C 12.882812 -14.300781 12.578125 -14.378906 12.265625 -14.453125 C 11.960938 -14.535156 11.710938 -14.578125 11.515625 -14.578125 L 11.21875 -14.578125 C 10.46875 -14.742188 9.753906 -14.867188 9.078125 -14.953125 C 8.398438 -15.046875 7.742188 -15.09375 7.109375 -15.09375 C 6.953125 -15.09375 6.800781 -15.085938 6.65625 -15.078125 C 6.519531 -15.066406 6.382812 -15.0625 6.25 -15.0625 C 6.113281 -14.644531 6.007812 -14.234375 5.9375 -13.828125 C 5.863281 -13.421875 5.828125 -13 5.828125 -12.5625 L 5.828125 -12.328125 C 5.796875 -12.085938 5.773438 -11.820312 5.765625 -11.53125 C 5.753906 -11.25 5.75 -10.957031 5.75 -10.65625 C 5.75 -10.4375 5.75 -10.207031 5.75 -9.96875 C 5.75 -9.726562 5.757812 -9.488281 5.78125 -9.25 L 8.84375 -9.3125 C 8.863281 -9.3125 9.007812 -9.320312 9.28125 -9.34375 C 9.5625 -9.363281 9.875 -9.390625 10.21875 -9.421875 C 10.570312 -9.453125 10.9375 -9.476562 11.3125 -9.5 C 11.6875 -9.519531 11.992188 -9.53125 12.234375 -9.53125 C 12.609375 -9.53125 12.882812 -9.429688 13.0625 -9.234375 C 13.238281 -9.046875 13.328125 -8.796875 13.328125 -8.484375 C 13.328125 -8.160156 13.238281 -7.921875 13.0625 -7.765625 C 12.882812 -7.609375 12.617188 -7.492188 12.265625 -7.421875 C 11.910156 -7.359375 11.460938 -7.320312 10.921875 -7.3125 C 10.390625 -7.300781 9.765625 -7.265625 9.046875 -7.203125 L 8.421875 -7.203125 C 8.066406 -7.203125 7.671875 -7.191406 7.234375 -7.171875 C 6.796875 -7.148438 6.328125 -7.117188 5.828125 -7.078125 L 5.828125 -3.28125 C 5.796875 -3.113281 5.78125 -2.957031 5.78125 -2.8125 C 5.78125 -2.664062 5.78125 -2.53125 5.78125 -2.40625 C 5.78125 -1.375 5.914062 -0.550781 6.1875 0.0625 C 6.144531 0.789062 5.816406 1.15625 5.203125 1.15625 C 4.753906 1.15625 4.359375 0.910156 4.015625 0.421875 L 3.578125 -1.421875 C 3.492188 -1.878906 3.429688 -2.335938 3.390625 -2.796875 C 3.347656 -3.253906 3.328125 -3.710938 3.328125 -4.171875 C 3.328125 -4.523438 3.332031 -4.898438 3.34375 -5.296875 C 3.351562 -5.691406 3.359375 -6.117188 3.359375 -6.578125 C 3.359375 -7.128906 3.359375 -7.71875 3.359375 -8.34375 C 3.359375 -8.96875 3.332031 -9.628906 3.28125 -10.328125 C 3.351562 -13.523438 3.71875 -15.769531 4.375 -17.0625 C 4.507812 -17.195312 4.859375 -17.265625 5.421875 -17.265625 C 5.515625 -17.265625 5.6875 -17.253906 5.9375 -17.234375 C 6.1875 -17.210938 6.453125 -17.191406 6.734375 -17.171875 C 7.023438 -17.148438 7.300781 -17.125 7.5625 -17.09375 C 7.820312 -17.070312 8.019531 -17.0625 8.15625 -17.0625 C 8.21875 -17.0625 8.265625 -17.066406 8.296875 -17.078125 C 8.335938 -17.097656 8.390625 -17.109375 8.453125 -17.109375 C 8.804688 -17.109375 9.707031 -16.941406 11.15625 -16.609375 C 13.257812 -16.566406 14.648438 -16.238281 15.328125 -15.625 Z M 15.328125 -15.625 "/></g></g></g><g fill="#000000" fill-opacity="1"><g transform="translate(17.085975, 24.696089)"><g><path d="M 10.6875 -0.75 C 10.269531 -0.46875 9.164062 -0.140625 7.375 0.234375 L 5.984375 -0.03125 C 5.804688 -0.09375 5.492188 -0.253906 5.046875 -0.515625 C 4.597656 -0.785156 4.132812 -1.171875 3.65625 -1.671875 C 3.1875 -2.179688 2.769531 -2.816406 2.40625 -3.578125 C 2.050781 -4.347656 1.875 -5.257812 1.875 -6.3125 C 1.875 -7.164062 2.113281 -7.925781 2.59375 -8.59375 C 3.082031 -9.269531 3.816406 -9.988281 4.796875 -10.75 C 5.328125 -10.882812 5.84375 -10.953125 6.34375 -10.953125 C 7.8125 -10.953125 9.160156 -10.457031 10.390625 -9.46875 C 11.441406 -8.019531 11.96875 -6.429688 11.96875 -4.703125 C 11.96875 -3.347656 11.539062 -2.03125 10.6875 -0.75 Z M 7.703125 -8.78125 C 7.367188 -8.9375 7.015625 -9.015625 6.640625 -9.015625 C 6.378906 -9.015625 6.097656 -8.945312 5.796875 -8.8125 C 5.503906 -8.6875 5.234375 -8.488281 4.984375 -8.21875 C 4.734375 -7.957031 4.53125 -7.625 4.375 -7.21875 C 4.21875 -6.8125 4.140625 -6.332031 4.140625 -5.78125 C 4.140625 -5.34375 4.195312 -4.90625 4.3125 -4.46875 C 4.4375 -4.03125 4.625 -3.625 4.875 -3.25 C 5.132812 -2.882812 5.460938 -2.582031 5.859375 -2.34375 C 6.253906 -2.113281 6.722656 -2 7.265625 -2 C 7.773438 -2 8.347656 -2.132812 8.984375 -2.40625 C 9.523438 -3.082031 9.796875 -3.890625 9.796875 -4.828125 C 9.796875 -6.910156 9.097656 -8.226562 7.703125 -8.78125 Z M 7.703125 -8.78125 "/></g></g></g><g fill="#000000" fill-opacity="1"><g transform="translate(30.967537, 24.696089)"><g><path d="M 6.3125 -17.53125 C 6.289062 -17.289062 6.242188 -16.992188 6.171875 -16.640625 C 6.109375 -16.285156 6.035156 -15.925781 5.953125 -15.5625 C 5.867188 -15.207031 5.785156 -14.863281 5.703125 -14.53125 C 5.628906 -14.207031 5.570312 -13.945312 5.53125 -13.75 C 5.550781 -13.632812 5.5625 -13.535156 5.5625 -13.453125 C 5.5625 -13.367188 5.5625 -13.269531 5.5625 -13.15625 C 5.5625 -12.976562 5.535156 -12.742188 5.484375 -12.453125 C 5.441406 -12.171875 5.390625 -11.875 5.328125 -11.5625 C 5.265625 -11.257812 5.207031 -10.972656 5.15625 -10.703125 C 5.113281 -10.429688 5.09375 -10.21875 5.09375 -10.0625 C 5.09375 -9.84375 5.097656 -9.523438 5.109375 -9.109375 C 5.117188 -8.691406 5.125 -8.234375 5.125 -7.734375 C 5.125 -7.242188 5.101562 -6.734375 5.0625 -6.203125 C 5.019531 -5.679688 4.941406 -5.210938 4.828125 -4.796875 C 4.859375 -4.535156 4.875 -4.273438 4.875 -4.015625 C 4.875 -3.753906 4.898438 -3.472656 4.953125 -3.171875 C 5.003906 -2.878906 5.097656 -2.554688 5.234375 -2.203125 C 5.378906 -1.847656 5.617188 -1.472656 5.953125 -1.078125 C 5.890625 -0.835938 5.6875 -0.613281 5.34375 -0.40625 C 5 -0.195312 4.65625 -0.09375 4.3125 -0.09375 C 3.851562 -0.09375 3.472656 -0.347656 3.171875 -0.859375 C 2.878906 -1.378906 2.734375 -2.332031 2.734375 -3.71875 C 2.734375 -3.957031 2.75 -4.171875 2.78125 -4.359375 C 2.8125 -4.546875 2.828125 -4.769531 2.828125 -5.03125 C 2.828125 -5.582031 2.757812 -6.238281 2.625 -7 C 2.71875 -7.21875 2.789062 -7.523438 2.84375 -7.921875 C 2.894531 -8.316406 2.929688 -8.707031 2.953125 -9.09375 C 2.984375 -9.476562 3.003906 -9.804688 3.015625 -10.078125 C 3.023438 -10.347656 3.03125 -10.472656 3.03125 -10.453125 C 3.03125 -10.472656 3.054688 -10.648438 3.109375 -10.984375 C 3.160156 -11.316406 3.21875 -11.710938 3.28125 -12.171875 C 3.351562 -12.628906 3.414062 -13.09375 3.46875 -13.5625 C 3.519531 -14.039062 3.546875 -14.421875 3.546875 -14.703125 L 3.546875 -14.96875 C 3.617188 -15.363281 3.695312 -15.800781 3.78125 -16.28125 C 3.863281 -16.757812 3.960938 -17.285156 4.078125 -17.859375 C 4.273438 -18.191406 4.601562 -18.359375 5.0625 -18.359375 C 5.632812 -18.359375 6.050781 -18.082031 6.3125 -17.53125 Z M 6.3125 -17.53125 "/></g></g></g><g fill="#000000" fill-opacity="1"><g transform="translate(39.914896, 24.696089)"><g><path d="M 6.3125 -17.53125 C 6.289062 -17.289062 6.242188 -16.992188 6.171875 -16.640625 C 6.109375 -16.285156 6.035156 -15.925781 5.953125 -15.5625 C 5.867188 -15.207031 5.785156 -14.863281 5.703125 -14.53125 C 5.628906 -14.207031 5.570312 -13.945312 5.53125 -13.75 C 5.550781 -13.632812 5.5625 -13.535156 5.5625 -13.453125 C 5.5625 -13.367188 5.5625 -13.269531 5.5625 -13.15625 C 5.5625 -12.976562 5.535156 -12.742188 5.484375 -12.453125 C 5.441406 -12.171875 5.390625 -11.875 5.328125 -11.5625 C 5.265625 -11.257812 5.207031 -10.972656 5.15625 -10.703125 C 5.113281 -10.429688 5.09375 -10.21875 5.09375 -10.0625 C 5.09375 -9.84375 5.097656 -9.523438 5.109375 -9.109375 C 5.117188 -8.691406 5.125 -8.234375 5.125 -7.734375 C 5.125 -7.242188 5.101562 -6.734375 5.0625 -6.203125 C 5.019531 -5.679688 4.941406 -5.210938 4.828125 -4.796875 C 4.859375 -4.535156 4.875 -4.273438 4.875 -4.015625 C 4.875 -3.753906 4.898438 -3.472656 4.953125 -3.171875 C 5.003906 -2.878906 5.097656 -2.554688 5.234375 -2.203125 C 5.378906 -1.847656 5.617188 -1.472656 5.953125 -1.078125 C 5.890625 -0.835938 5.6875 -0.613281 5.34375 -0.40625 C 5 -0.195312 4.65625 -0.09375 4.3125 -0.09375 C 3.851562 -0.09375 3.472656 -0.347656 3.171875 -0.859375 C 2.878906 -1.378906 2.734375 -2.332031 2.734375 -3.71875 C 2.734375 -3.957031 2.75 -4.171875 2.78125 -4.359375 C 2.8125 -4.546875 2.828125 -4.769531 2.828125 -5.03125 C 2.828125 -5.582031 2.757812 -6.238281 2.625 -7 C 2.71875 -7.21875 2.789062 -7.523438 2.84375 -7.921875 C 2.894531 -8.316406 2.929688 -8.707031 2.953125 -9.09375 C 2.984375 -9.476562 3.003906 -9.804688 3.015625 -10.078125 C 3.023438 -10.347656 3.03125 -10.472656 3.03125 -10.453125 C 3.03125 -10.472656 3.054688 -10.648438 3.109375 -10.984375 C 3.160156 -11.316406 3.21875 -11.710938 3.28125 -12.171875 C 3.351562 -12.628906 3.414062 -13.09375 3.46875 -13.5625 C 3.519531 -14.039062 3.546875 -14.421875 3.546875 -14.703125 L 3.546875 -14.96875 C 3.617188 -15.363281 3.695312 -15.800781 3.78125 -16.28125 C 3.863281 -16.757812 3.960938 -17.285156 4.078125 -17.859375 C 4.273438 -18.191406 4.601562 -18.359375 5.0625 -18.359375 C 5.632812 -18.359375 6.050781 -18.082031 6.3125 -17.53125 Z M 6.3125 -17.53125 "/></g></g></g><g fill="#000000" fill-opacity="1"><g transform="translate(48.862255, 24.696089)"><g><path d="M 10.6875 -0.75 C 10.269531 -0.46875 9.164062 -0.140625 7.375 0.234375 L 5.984375 -0.03125 C 5.804688 -0.09375 5.492188 -0.253906 5.046875 -0.515625 C 4.597656 -0.785156 4.132812 -1.171875 3.65625 -1.671875 C 3.1875 -2.179688 2.769531 -2.816406 2.40625 -3.578125 C 2.050781 -4.347656 1.875 -5.257812 1.875 -6.3125 C 1.875 -7.164062 2.113281 -7.925781 2.59375 -8.59375 C 3.082031 -9.269531 3.816406 -9.988281 4.796875 -10.75 C 5.328125 -10.882812 5.84375 -10.953125 6.34375 -10.953125 C 7.8125 -10.953125 9.160156 -10.457031 10.390625 -9.46875 C 11.441406 -8.019531 11.96875 -6.429688 11.96875 -4.703125 C 11.96875 -3.347656 11.539062 -2.03125 10.6875 -0.75 Z M 7.703125 -8.78125 C 7.367188 -8.9375 7.015625 -9.015625 6.640625 -9.015625 C 6.378906 -9.015625 6.097656 -8.945312 5.796875 -8.8125 C 5.503906 -8.6875 5.234375 -8.488281 4.984375 -8.21875 C 4.734375 -7.957031 4.53125 -7.625 4.375 -7.21875 C 4.21875 -6.8125 4.140625 -6.332031 4.140625 -5.78125 C 4.140625 -5.34375 4.195312 -4.90625 4.3125 -4.46875 C 4.4375 -4.03125 4.625 -3.625 4.875 -3.25 C 5.132812 -2.882812 5.460938 -2.582031 5.859375 -2.34375 C 6.253906 -2.113281 6.722656 -2 7.265625 -2 C 7.773438 -2 8.347656 -2.132812 8.984375 -2.40625 C 9.523438 -3.082031 9.796875 -3.890625 9.796875 -4.828125 C 9.796875 -6.910156 9.097656 -8.226562 7.703125 -8.78125 Z M 7.703125 -8.78125 "/></g></g></g><g fill="#000000" fill-opacity="1"><g transform="translate(62.743817, 24.696089)"><g><path d="M 20.390625 -11.96875 C 20.367188 -11.84375 20.3125 -11.609375 20.21875 -11.265625 C 20.132812 -10.921875 20.03125 -10.5625 19.90625 -10.1875 C 19.789062 -9.820312 19.679688 -9.460938 19.578125 -9.109375 C 19.484375 -8.753906 19.425781 -8.476562 19.40625 -8.28125 C 19.226562 -7.84375 19.046875 -7.382812 18.859375 -6.90625 C 18.671875 -6.425781 18.46875 -5.898438 18.25 -5.328125 C 18.25 -5.265625 18.171875 -5.039062 18.015625 -4.65625 C 17.867188 -4.269531 17.691406 -3.832031 17.484375 -3.34375 C 17.273438 -2.863281 17.066406 -2.398438 16.859375 -1.953125 C 16.648438 -1.503906 16.488281 -1.191406 16.375 -1.015625 C 15.78125 -0.335938 15.132812 0.0859375 14.4375 0.265625 C 13.800781 -0.0859375 13.109375 -1.109375 12.359375 -2.796875 C 12.234375 -3.097656 12.035156 -3.613281 11.765625 -4.34375 C 11.503906 -5.082031 11.191406 -6.046875 10.828125 -7.234375 C 10.335938 -6.265625 9.867188 -5.382812 9.421875 -4.59375 C 8.972656 -3.8125 8.550781 -3.132812 8.15625 -2.5625 C 7.757812 -1.988281 7.382812 -1.535156 7.03125 -1.203125 C 6.6875 -0.878906 6.382812 -0.707031 6.125 -0.6875 C 5.832031 -0.863281 5.5 -1.203125 5.125 -1.703125 L 4.140625 -3.03125 C 4.054688 -3.226562 3.941406 -3.507812 3.796875 -3.875 C 3.648438 -4.25 3.5 -4.640625 3.34375 -5.046875 C 3.195312 -5.453125 3.050781 -5.828125 2.90625 -6.171875 C 2.769531 -6.523438 2.65625 -6.789062 2.5625 -6.96875 C 2.5 -7.125 2.410156 -7.378906 2.296875 -7.734375 C 2.191406 -8.097656 2.085938 -8.484375 1.984375 -8.890625 C 1.890625 -9.296875 1.804688 -9.679688 1.734375 -10.046875 C 1.671875 -10.410156 1.640625 -10.679688 1.640625 -10.859375 C 1.640625 -11.179688 1.734375 -11.429688 1.921875 -11.609375 C 2.109375 -11.785156 2.34375 -11.875 2.625 -11.875 C 3.175781 -11.875 3.570312 -11.6875 3.8125 -11.3125 L 4.109375 -9.703125 C 4.242188 -9.003906 4.421875 -8.445312 4.640625 -8.03125 C 5.253906 -5.8125 5.820312 -4.375 6.34375 -3.71875 C 6.414062 -3.78125 6.523438 -3.941406 6.671875 -4.203125 C 6.828125 -4.472656 6.988281 -4.753906 7.15625 -5.046875 C 7.320312 -5.347656 7.472656 -5.628906 7.609375 -5.890625 C 7.753906 -6.148438 7.847656 -6.300781 7.890625 -6.34375 C 8.148438 -6.5625 8.445312 -7.023438 8.78125 -7.734375 L 9.375 -8.984375 C 10.070312 -10.078125 10.773438 -10.710938 11.484375 -10.890625 C 11.523438 -10.847656 11.597656 -10.703125 11.703125 -10.453125 C 11.816406 -10.210938 11.925781 -9.941406 12.03125 -9.640625 C 12.144531 -9.347656 12.257812 -9.078125 12.375 -8.828125 C 12.5 -8.578125 12.59375 -8.421875 12.65625 -8.359375 C 12.925781 -7.742188 13.179688 -6.957031 13.421875 -6 C 13.660156 -5.050781 14.109375 -3.875 14.765625 -2.46875 C 15.117188 -3.007812 15.363281 -3.46875 15.5 -3.84375 C 15.644531 -4.21875 15.765625 -4.570312 15.859375 -4.90625 C 15.960938 -5.25 16.0625 -5.628906 16.15625 -6.046875 C 16.257812 -6.460938 16.429688 -7 16.671875 -7.65625 C 16.910156 -8.320312 17.078125 -8.800781 17.171875 -9.09375 C 17.273438 -9.382812 17.359375 -9.648438 17.421875 -9.890625 C 17.492188 -10.140625 17.578125 -10.429688 17.671875 -10.765625 C 17.773438 -11.109375 17.945312 -11.640625 18.1875 -12.359375 C 18.519531 -12.847656 18.882812 -13.09375 19.28125 -13.09375 C 19.800781 -13.09375 20.171875 -12.71875 20.390625 -11.96875 Z M 20.390625 -11.96875 "/></g></g></g><g fill="#000000" fill-opacity="1"><g transform="translate(84.059568, 24.696089)"><g/></g></g><g fill="#000000" fill-opacity="1"><g transform="translate(97.875342, 24.696089)"><g><path d="M 21.34375 -1.640625 C 21.34375 -1.179688 20.992188 -0.953125 20.296875 -0.953125 C 19.960938 -0.953125 19.710938 -1.09375 19.546875 -1.375 C 19.390625 -1.664062 19.273438 -2.03125 19.203125 -2.46875 C 19.140625 -2.90625 19.101562 -3.390625 19.09375 -3.921875 C 19.082031 -4.460938 19.066406 -4.988281 19.046875 -5.5 C 18.929688 -5.882812 18.800781 -6.5625 18.65625 -7.53125 C 18.363281 -7.925781 18.003906 -8.25 17.578125 -8.5 C 17.148438 -8.75 16.675781 -8.875 16.15625 -8.875 C 15.957031 -8.875 15.734375 -8.847656 15.484375 -8.796875 C 15.242188 -8.742188 14.992188 -8.675781 14.734375 -8.59375 C 14.472656 -8.519531 14.21875 -8.425781 13.96875 -8.3125 C 13.726562 -8.207031 13.535156 -8.085938 13.390625 -7.953125 C 12.953125 -7.609375 12.578125 -6.765625 12.265625 -5.421875 C 12.285156 -5.316406 12.296875 -5.109375 12.296875 -4.796875 C 12.296875 -4.535156 12.28125 -4.222656 12.25 -3.859375 C 12.21875 -3.503906 12.179688 -3.09375 12.140625 -2.625 L 12.140625 -2.40625 C 12.140625 -2.332031 12.144531 -2.140625 12.15625 -1.828125 C 12.164062 -1.523438 12.132812 -1.203125 12.0625 -0.859375 C 12 -0.523438 11.878906 -0.222656 11.703125 0.046875 C 11.535156 0.316406 11.273438 0.453125 10.921875 0.453125 C 10.191406 0.453125 9.828125 0.179688 9.828125 -0.359375 C 9.828125 -0.421875 9.84375 -0.597656 9.875 -0.890625 C 9.914062 -1.191406 9.960938 -1.53125 10.015625 -1.90625 C 10.066406 -2.28125 10.109375 -2.660156 10.140625 -3.046875 C 10.179688 -3.429688 10.203125 -3.742188 10.203125 -3.984375 C 10.203125 -4.441406 10.164062 -4.859375 10.09375 -5.234375 L 10.09375 -5.859375 C 10.09375 -6.253906 10.066406 -6.671875 10.015625 -7.109375 C 9.960938 -7.546875 9.867188 -7.953125 9.734375 -8.328125 C 9.597656 -8.710938 9.414062 -9.046875 9.1875 -9.328125 C 8.957031 -9.617188 8.671875 -9.832031 8.328125 -9.96875 C 8.273438 -9.988281 7.910156 -10.03125 7.234375 -10.09375 C 6.660156 -9.96875 6.175781 -9.609375 5.78125 -9.015625 L 5 -7.46875 C 4.9375 -7.050781 4.882812 -6.675781 4.84375 -6.34375 C 4.8125 -6.019531 4.785156 -5.710938 4.765625 -5.421875 L 4.671875 -3.90625 C 4.804688 -3.144531 4.875 -2.507812 4.875 -2 C 4.875 -1.5625 4.816406 -1.207031 4.703125 -0.9375 C 4.585938 -0.664062 4.289062 -0.53125 3.8125 -0.53125 C 3.570312 -0.53125 3.375 -0.554688 3.21875 -0.609375 C 3.070312 -0.660156 2.945312 -0.816406 2.84375 -1.078125 C 2.75 -1.347656 2.675781 -1.742188 2.625 -2.265625 C 2.582031 -2.796875 2.5625 -3.53125 2.5625 -4.46875 C 2.5625 -5.21875 2.609375 -5.957031 2.703125 -6.6875 C 2.804688 -7.425781 2.945312 -8.351562 3.125 -9.46875 C 3.0625 -10.125 2.894531 -10.757812 2.625 -11.375 C 2.625 -11.664062 2.726562 -11.921875 2.9375 -12.140625 C 3.144531 -12.359375 3.425781 -12.46875 3.78125 -12.46875 C 4.0625 -12.46875 4.296875 -12.367188 4.484375 -12.171875 C 4.671875 -11.972656 4.929688 -11.585938 5.265625 -11.015625 C 5.703125 -11.453125 6.078125 -11.769531 6.390625 -11.96875 C 6.710938 -12.164062 7.050781 -12.285156 7.40625 -12.328125 C 7.75 -12.328125 8.023438 -12.320312 8.234375 -12.3125 C 8.441406 -12.300781 8.640625 -12.269531 8.828125 -12.21875 C 9.015625 -12.164062 9.21875 -12.066406 9.4375 -11.921875 C 9.65625 -11.773438 9.960938 -11.570312 10.359375 -11.3125 C 10.753906 -11.03125 11.160156 -10.226562 11.578125 -8.90625 C 11.679688 -9.0625 11.847656 -9.257812 12.078125 -9.5 C 12.316406 -9.738281 12.609375 -9.96875 12.953125 -10.1875 C 13.304688 -10.414062 13.734375 -10.601562 14.234375 -10.75 C 14.742188 -10.90625 15.328125 -10.984375 15.984375 -10.984375 C 16.679688 -10.984375 17.28125 -10.914062 17.78125 -10.78125 C 18.289062 -10.65625 18.734375 -10.457031 19.109375 -10.1875 C 19.484375 -9.925781 19.804688 -9.597656 20.078125 -9.203125 C 20.347656 -8.816406 20.609375 -8.359375 20.859375 -7.828125 L 20.859375 -7.5625 C 20.859375 -7.363281 20.878906 -7.023438 20.921875 -6.546875 C 20.960938 -6.066406 21.003906 -5.585938 21.046875 -5.109375 C 21.085938 -4.640625 21.128906 -4.226562 21.171875 -3.875 C 21.222656 -3.53125 21.25 -3.378906 21.25 -3.421875 C 21.25 -3.398438 21.253906 -3.328125 21.265625 -3.203125 C 21.273438 -3.085938 21.285156 -2.945312 21.296875 -2.78125 C 21.304688 -2.613281 21.316406 -2.441406 21.328125 -2.265625 C 21.335938 -2.085938 21.34375 -1.945312 21.34375 -1.84375 Z M 21.34375 -1.640625 "/></g></g></g><g fill="#000000" fill-opacity="1"><g transform="translate(121.855567, 24.696089)"><g><path d="M 13.71875 -1.3125 C 13.007812 -0.613281 12.179688 -0.015625 11.234375 0.484375 C 10.296875 0.992188 9.335938 1.25 8.359375 1.25 C 7.941406 1.25 6.988281 1.097656 5.5 0.796875 C 5.101562 0.523438 4.679688 0.191406 4.234375 -0.203125 C 3.796875 -0.597656 3.394531 -1.050781 3.03125 -1.5625 C 2.675781 -2.070312 2.382812 -2.617188 2.15625 -3.203125 C 1.925781 -3.785156 1.8125 -4.394531 1.8125 -5.03125 L 1.8125 -5 C 1.832031 -5.195312 1.851562 -5.425781 1.875 -5.6875 C 1.894531 -5.925781 1.914062 -6.203125 1.9375 -6.515625 C 1.957031 -6.835938 1.992188 -7.21875 2.046875 -7.65625 C 2.484375 -8.363281 2.9375 -9.054688 3.40625 -9.734375 C 3.875 -10.410156 4.570312 -11.015625 5.5 -11.546875 C 6.894531 -11.867188 7.945312 -12.03125 8.65625 -12.03125 C 8.976562 -12.03125 9.265625 -12.015625 9.515625 -11.984375 C 9.773438 -11.953125 10.019531 -11.875 10.25 -11.75 C 10.476562 -11.632812 10.707031 -11.476562 10.9375 -11.28125 C 11.164062 -11.082031 11.445312 -10.816406 11.78125 -10.484375 C 12.019531 -10.222656 12.203125 -10.03125 12.328125 -9.90625 C 12.460938 -9.789062 12.5625 -9.695312 12.625 -9.625 C 12.695312 -9.5625 12.734375 -9.507812 12.734375 -9.46875 C 12.734375 -9.425781 12.734375 -9.363281 12.734375 -9.28125 C 12.734375 -8.488281 12.648438 -7.847656 12.484375 -7.359375 C 12.316406 -6.878906 12.007812 -6.484375 11.5625 -6.171875 C 11.113281 -5.867188 10.492188 -5.601562 9.703125 -5.375 C 8.910156 -5.144531 7.890625 -4.890625 6.640625 -4.609375 L 6.453125 -4.609375 C 6.054688 -4.609375 5.351562 -4.519531 4.34375 -4.34375 C 5.132812 -2.019531 6.394531 -0.859375 8.125 -0.859375 C 9.351562 -0.859375 10.742188 -1.484375 12.296875 -2.734375 C 12.453125 -2.859375 12.648438 -2.921875 12.890625 -2.921875 C 13.566406 -2.921875 13.90625 -2.59375 13.90625 -1.9375 C 13.90625 -1.71875 13.84375 -1.507812 13.71875 -1.3125 Z M 10.5625 -8.6875 C 9.96875 -9.664062 9.296875 -10.15625 8.546875 -10.15625 C 8.222656 -10.15625 7.875 -10.113281 7.5 -10.03125 C 7.125 -9.945312 6.765625 -9.828125 6.421875 -9.671875 C 6.085938 -9.515625 5.769531 -9.328125 5.46875 -9.109375 C 5.175781 -8.890625 4.929688 -8.640625 4.734375 -8.359375 C 4.648438 -8.179688 4.566406 -7.925781 4.484375 -7.59375 C 4.410156 -7.269531 4.316406 -6.875 4.203125 -6.40625 C 4.796875 -6.519531 5.445312 -6.597656 6.15625 -6.640625 C 6.875 -6.679688 7.554688 -6.769531 8.203125 -6.90625 C 8.847656 -7.039062 9.390625 -7.238281 9.828125 -7.5 C 10.265625 -7.757812 10.507812 -8.15625 10.5625 -8.6875 Z M 10.5625 -8.6875 "/></g></g></g><g fill="#000000" fill-opacity="1"><g transform="translate(137.57922, 24.696089)"><g/></g></g><g fill="#000000" fill-opacity="1"><g transform="translate(151.394995, 24.696089)"><g><path d="M 7.4375 -13.8125 C 7.4375 -13.488281 7.25 -13.1875 6.875 -12.90625 C 6.5 -12.632812 6.148438 -12.5 5.828125 -12.5 C 5.234375 -12.5 4.628906 -13.035156 4.015625 -14.109375 C 4.015625 -14.546875 4.125 -14.910156 4.34375 -15.203125 C 4.5625 -15.503906 4.789062 -15.785156 5.03125 -16.046875 C 5.226562 -16.023438 5.457031 -16.003906 5.71875 -15.984375 C 5.988281 -15.960938 6.25 -15.882812 6.5 -15.75 C 6.75 -15.625 6.96875 -15.40625 7.15625 -15.09375 C 7.34375 -14.789062 7.4375 -14.363281 7.4375 -13.8125 Z M 7.5 -3.421875 C 7.5 -3.066406 7.335938 -2.789062 7.015625 -2.59375 C 6.703125 -2.394531 6.414062 -2.296875 6.15625 -2.296875 C 5.6875 -2.296875 5.316406 -2.347656 5.046875 -2.453125 C 4.773438 -2.566406 4.570312 -2.710938 4.4375 -2.890625 C 4.3125 -3.066406 4.222656 -3.25 4.171875 -3.4375 C 4.128906 -3.625 4.109375 -3.804688 4.109375 -3.984375 C 4.109375 -4.398438 4.25 -4.800781 4.53125 -5.1875 C 4.820312 -5.582031 5.1875 -5.78125 5.625 -5.78125 C 5.78125 -5.78125 5.96875 -5.765625 6.1875 -5.734375 C 6.40625 -5.703125 6.613281 -5.601562 6.8125 -5.4375 C 7.007812 -5.28125 7.171875 -5.039062 7.296875 -4.71875 C 7.429688 -4.40625 7.5 -3.972656 7.5 -3.421875 Z M 7.5 -3.421875 "/></g></g></g><g fill="#000000" fill-opacity="1"><g transform="translate(162.908128, 24.696089)"><g><path d="M 10.5625 -7.203125 C 10.46875 -6.609375 10.296875 -5.78125 10.046875 -4.71875 C 9.796875 -3.65625 9.445312 -2.566406 9 -1.453125 C 8.550781 -0.347656 8.015625 0.660156 7.390625 1.578125 C 6.765625 2.492188 6.019531 3.109375 5.15625 3.421875 C 5.113281 3.421875 5.082031 3.425781 5.0625 3.4375 C 5.039062 3.445312 5.007812 3.453125 4.96875 3.453125 C 4.675781 3.453125 4.429688 3.351562 4.234375 3.15625 C 4.046875 2.957031 3.953125 2.71875 3.953125 2.4375 C 3.953125 2.238281 4.023438 2.007812 4.171875 1.75 C 4.328125 1.5 4.515625 1.234375 4.734375 0.953125 C 4.953125 0.671875 5.1875 0.375 5.4375 0.0625 C 5.695312 -0.238281 5.9375 -0.546875 6.15625 -0.859375 C 6.59375 -1.753906 6.945312 -2.535156 7.21875 -3.203125 C 7.488281 -3.867188 7.707031 -4.492188 7.875 -5.078125 C 8.039062 -5.660156 8.148438 -6.222656 8.203125 -6.765625 C 8.253906 -7.316406 8.28125 -7.910156 8.28125 -8.546875 C 8.28125 -8.597656 8.273438 -8.84375 8.265625 -9.28125 C 8.253906 -9.71875 8.21875 -10.25 8.15625 -10.875 C 8.09375 -11.5 7.984375 -12.164062 7.828125 -12.875 C 7.671875 -13.59375 7.453125 -14.253906 7.171875 -14.859375 C 7.015625 -15.191406 6.882812 -15.46875 6.78125 -15.6875 C 6.6875 -15.90625 6.570312 -16.128906 6.4375 -16.359375 C 6.3125 -16.585938 6.144531 -16.847656 5.9375 -17.140625 C 5.726562 -17.441406 5.4375 -17.820312 5.0625 -18.28125 C 4.644531 -18.789062 4.375 -19.1875 4.25 -19.46875 C 4.132812 -19.757812 4.078125 -19.96875 4.078125 -20.09375 C 4.078125 -20.351562 4.191406 -20.582031 4.421875 -20.78125 C 4.648438 -20.976562 4.882812 -21.078125 5.125 -21.078125 C 5.300781 -21.078125 5.4375 -21.035156 5.53125 -20.953125 C 7.695312 -19.265625 8.847656 -17.664062 8.984375 -16.15625 C 9.109375 -16.039062 9.253906 -15.816406 9.421875 -15.484375 C 9.585938 -15.160156 9.75 -14.789062 9.90625 -14.375 C 10.070312 -13.957031 10.207031 -13.523438 10.3125 -13.078125 C 10.425781 -12.628906 10.507812 -12.238281 10.5625 -11.90625 C 10.539062 -11.601562 10.53125 -11.285156 10.53125 -10.953125 C 10.53125 -10.617188 10.53125 -10.253906 10.53125 -9.859375 C 10.53125 -9.472656 10.53125 -9.054688 10.53125 -8.609375 C 10.53125 -8.171875 10.539062 -7.703125 10.5625 -7.203125 Z M 10.5625 -7.203125 "/></g></g></g></g></g></svg>