<svg xmlns="http://www.w3.org/2000/svg" xmlns:xlink="http://www.w3.org/1999/xlink" width="308" zoomAndPan="magnify" viewBox="0 0 230.87999 73.499998" height="98" preserveAspectRatio="xMidYMid meet" version="1.0"><defs><g/><clipPath id="01dbd96195"><rect x="0" width="178" y="0" height="35"/></clipPath><clipPath id="77384b2932"><path d="M 4 30 L 43 30 L 43 66 L 4 66 Z M 4 30 " clip-rule="nonzero"/></clipPath><clipPath id="3ff43898e8"><path d="M 28.347656 72.675781 L 0.929688 63.070312 L 15.457031 21.589844 L 42.878906 31.195312 Z M 28.347656 72.675781 " clip-rule="nonzero"/></clipPath><clipPath id="ff0638629c"><path d="M 28.347656 72.675781 L 0.929688 63.070312 L 15.457031 21.589844 L 42.878906 31.195312 Z M 28.347656 72.675781 " clip-rule="nonzero"/></clipPath><clipPath id="e59a68abe9"><path d="M 28.347656 72.675781 L 0.929688 63.070312 L 15.457031 21.589844 L 42.878906 31.195312 Z M 28.347656 72.675781 " clip-rule="nonzero"/></clipPath></defs><g transform="matrix(1, 0, 0, 1, 46, 10)"><g clip-path="url(#01dbd96195)"><g fill="#000000" fill-opacity="1"><g transform="translate(1.091797, 24.674336)"><g><path d="M 21.21875 -0.328125 C 21.101562 0.109375 20.722656 0.328125 20.078125 0.328125 C 19.648438 0.328125 19.359375 0.1875 19.203125 -0.09375 C 19.066406 -0.8125 18.945312 -1.570312 18.84375 -2.375 C 18.75 -3.1875 18.679688 -4.0625 18.640625 -5 C 18.640625 -5.332031 18.617188 -5.675781 18.578125 -6.03125 C 18.546875 -6.382812 18.492188 -6.820312 18.421875 -7.34375 C 18.359375 -7.875 18.28125 -8.535156 18.1875 -9.328125 C 18.101562 -10.128906 18.019531 -11.144531 17.9375 -12.375 L 16.71875 -10.65625 C 16.382812 -10.1875 16.023438 -9.753906 15.640625 -9.359375 C 15.265625 -8.972656 14.890625 -8.59375 14.515625 -8.21875 C 14.148438 -7.539062 13.421875 -6.722656 12.328125 -5.765625 C 12.285156 -5.765625 12.257812 -5.757812 12.25 -5.75 C 12.238281 -5.738281 12.210938 -5.734375 12.171875 -5.734375 C 11.648438 -5.734375 11.210938 -5.890625 10.859375 -6.203125 C 10.503906 -6.515625 10.128906 -6.984375 9.734375 -7.609375 C 9.347656 -8.234375 8.890625 -9.015625 8.359375 -9.953125 C 7.835938 -10.890625 7.148438 -11.984375 6.296875 -13.234375 C 6.296875 -13.210938 6.273438 -13.054688 6.234375 -12.765625 C 6.191406 -12.472656 6.132812 -12.101562 6.0625 -11.65625 C 6 -11.21875 5.929688 -10.734375 5.859375 -10.203125 C 5.796875 -9.679688 5.722656 -9.160156 5.640625 -8.640625 C 5.566406 -8.128906 5.5 -7.660156 5.4375 -7.234375 C 5.382812 -6.816406 5.347656 -6.492188 5.328125 -6.265625 L 5.328125 -5.734375 C 5.347656 -5.398438 5.335938 -5.007812 5.296875 -4.5625 C 5.253906 -4.113281 5.207031 -3.609375 5.15625 -3.046875 L 4.828125 0.40625 C 4.785156 0.851562 4.425781 1.078125 3.75 1.078125 C 3.28125 1.078125 2.976562 0.972656 2.84375 0.765625 C 2.707031 0.566406 2.640625 0.175781 2.640625 -0.40625 C 2.640625 -1.050781 2.648438 -1.5625 2.671875 -1.9375 C 2.703125 -2.320312 2.726562 -2.613281 2.75 -2.8125 C 2.769531 -3.007812 2.796875 -3.15625 2.828125 -3.25 C 2.859375 -3.34375 2.882812 -3.429688 2.90625 -3.515625 C 2.9375 -3.609375 2.96875 -3.726562 3 -3.875 C 3.03125 -4.019531 3.046875 -4.25 3.046875 -4.5625 C 3.066406 -5.269531 3.082031 -5.765625 3.09375 -6.046875 C 3.101562 -6.328125 3.113281 -6.546875 3.125 -6.703125 C 3.144531 -6.859375 3.175781 -7.039062 3.21875 -7.25 C 3.257812 -7.46875 3.328125 -7.867188 3.421875 -8.453125 C 3.484375 -8.828125 3.523438 -9.144531 3.546875 -9.40625 C 3.578125 -9.675781 3.59375 -9.894531 3.59375 -10.0625 L 3.59375 -10.296875 C 3.613281 -10.734375 3.644531 -11.179688 3.6875 -11.640625 C 3.726562 -12.097656 3.78125 -12.585938 3.84375 -13.109375 C 3.914062 -13.640625 4 -14.222656 4.09375 -14.859375 C 4.195312 -15.492188 4.34375 -16.21875 4.53125 -17.03125 C 4.75 -17.25 5.140625 -17.359375 5.703125 -17.359375 C 5.992188 -17.359375 6.21875 -17.316406 6.375 -17.234375 C 6.769531 -16.671875 7.15625 -16.117188 7.53125 -15.578125 C 7.914062 -15.046875 8.328125 -14.441406 8.765625 -13.765625 C 9.203125 -13.097656 9.664062 -12.335938 10.15625 -11.484375 C 10.644531 -10.640625 11.191406 -9.640625 11.796875 -8.484375 L 12.96875 -9.625 C 13.570312 -10.226562 13.960938 -10.726562 14.140625 -11.125 C 14.179688 -11.164062 14.382812 -11.429688 14.75 -11.921875 C 15.125 -12.421875 15.660156 -13.148438 16.359375 -14.109375 L 17.796875 -15.953125 C 17.953125 -16.046875 18.128906 -16.09375 18.328125 -16.09375 C 18.796875 -16.09375 19.222656 -15.921875 19.609375 -15.578125 C 20.003906 -13.929688 20.203125 -12.679688 20.203125 -11.828125 L 20.203125 -11.5 C 20.203125 -11.382812 20.222656 -11.109375 20.265625 -10.671875 C 20.316406 -10.234375 20.375 -9.757812 20.4375 -9.25 C 20.507812 -8.738281 20.578125 -8.25 20.640625 -7.78125 C 20.710938 -7.3125 20.769531 -7 20.8125 -6.84375 C 20.8125 -6.21875 20.84375 -5.539062 20.90625 -4.8125 C 20.976562 -4.082031 21.070312 -3.304688 21.1875 -2.484375 C 21.226562 -2.210938 21.257812 -1.957031 21.28125 -1.71875 C 21.300781 -1.488281 21.3125 -1.285156 21.3125 -1.109375 C 21.3125 -0.796875 21.28125 -0.535156 21.21875 -0.328125 Z M 21.21875 -0.328125 "/></g></g></g><g fill="#000000" fill-opacity="1"><g transform="translate(24.954166, 24.674336)"><g><path d="M 10.890625 -0.765625 C 10.460938 -0.472656 9.332031 -0.140625 7.5 0.234375 L 6.09375 -0.03125 C 5.914062 -0.101562 5.597656 -0.269531 5.140625 -0.53125 C 4.679688 -0.800781 4.210938 -1.191406 3.734375 -1.703125 C 3.253906 -2.222656 2.828125 -2.875 2.453125 -3.65625 C 2.085938 -4.4375 1.90625 -5.363281 1.90625 -6.4375 C 1.90625 -7.300781 2.148438 -8.070312 2.640625 -8.75 C 3.140625 -9.4375 3.890625 -10.171875 4.890625 -10.953125 C 5.429688 -11.085938 5.957031 -11.15625 6.46875 -11.15625 C 7.96875 -11.15625 9.34375 -10.65625 10.59375 -9.65625 C 11.664062 -8.175781 12.203125 -6.554688 12.203125 -4.796875 C 12.203125 -3.410156 11.765625 -2.066406 10.890625 -0.765625 Z M 7.84375 -8.953125 C 7.507812 -9.109375 7.148438 -9.1875 6.765625 -9.1875 C 6.503906 -9.1875 6.222656 -9.117188 5.921875 -8.984375 C 5.617188 -8.847656 5.335938 -8.644531 5.078125 -8.375 C 4.816406 -8.113281 4.609375 -7.773438 4.453125 -7.359375 C 4.296875 -6.941406 4.21875 -6.457031 4.21875 -5.90625 C 4.21875 -5.457031 4.28125 -5.007812 4.40625 -4.5625 C 4.53125 -4.113281 4.71875 -3.695312 4.96875 -3.3125 C 5.226562 -2.9375 5.554688 -2.628906 5.953125 -2.390625 C 6.359375 -2.160156 6.84375 -2.046875 7.40625 -2.046875 C 7.914062 -2.046875 8.5 -2.179688 9.15625 -2.453125 C 9.707031 -3.140625 9.984375 -3.960938 9.984375 -4.921875 C 9.984375 -7.046875 9.269531 -8.390625 7.84375 -8.953125 Z M 7.84375 -8.953125 "/></g></g></g><g fill="#000000" fill-opacity="1"><g transform="translate(39.097305, 24.674336)"><g><path d="M 11.5 -11.390625 C 11.757812 -11.210938 11.890625 -10.898438 11.890625 -10.453125 C 11.890625 -9.585938 11.535156 -9.15625 10.828125 -9.15625 C 10.492188 -9.15625 10.15625 -9.234375 9.8125 -9.390625 C 9.476562 -9.546875 9.15625 -9.625 8.84375 -9.625 C 8.488281 -9.625 8.148438 -9.554688 7.828125 -9.421875 C 7.503906 -9.285156 7.140625 -9.015625 6.734375 -8.609375 L 5.5 -7.40625 L 5.5 -6.703125 C 5.5 -6.367188 5.492188 -5.992188 5.484375 -5.578125 C 5.472656 -5.160156 5.453125 -4.71875 5.421875 -4.25 C 5.453125 -3.425781 5.554688 -2.3125 5.734375 -0.90625 C 5.660156 -0.101562 5.257812 0.296875 4.53125 0.296875 C 4.125 0.296875 3.835938 0.191406 3.671875 -0.015625 C 3.503906 -0.222656 3.382812 -0.503906 3.3125 -0.859375 C 3.25 -1.222656 3.21875 -1.628906 3.21875 -2.078125 C 3.21875 -2.523438 3.195312 -2.984375 3.15625 -3.453125 C 3.175781 -3.566406 3.1875 -3.703125 3.1875 -3.859375 C 3.1875 -4.015625 3.1875 -4.179688 3.1875 -4.359375 L 3.1875 -4.890625 L 2.984375 -7.34375 C 2.960938 -7.445312 2.953125 -7.546875 2.953125 -7.640625 C 2.953125 -7.734375 2.953125 -7.820312 2.953125 -7.90625 C 2.953125 -8.082031 2.972656 -8.285156 3.015625 -8.515625 C 2.796875 -9.316406 2.6875 -9.910156 2.6875 -10.296875 C 2.6875 -10.609375 2.773438 -10.832031 2.953125 -10.96875 C 3.128906 -11.113281 3.453125 -11.1875 3.921875 -11.1875 C 4.234375 -11.1875 4.476562 -11.082031 4.65625 -10.875 C 4.832031 -10.664062 5.054688 -10.40625 5.328125 -10.09375 L 6.796875 -11.15625 C 7.179688 -11.445312 7.535156 -11.632812 7.859375 -11.71875 C 8.179688 -11.8125 8.5 -11.859375 8.8125 -11.859375 C 9.28125 -11.859375 9.773438 -11.804688 10.296875 -11.703125 Z M 11.5 -11.390625 "/></g></g></g><g fill="#000000" fill-opacity="1"><g transform="translate(51.899866, 24.674336)"><g><path d="M 13.96875 -1.34375 C 13.257812 -0.625 12.421875 -0.0078125 11.453125 0.5 C 10.492188 1.019531 9.515625 1.28125 8.515625 1.28125 C 8.085938 1.28125 7.113281 1.117188 5.59375 0.796875 C 5.195312 0.535156 4.773438 0.207031 4.328125 -0.1875 C 3.878906 -0.59375 3.46875 -1.054688 3.09375 -1.578125 C 2.726562 -2.109375 2.425781 -2.671875 2.1875 -3.265625 C 1.957031 -3.859375 1.84375 -4.476562 1.84375 -5.125 L 1.84375 -5.09375 C 1.863281 -5.289062 1.882812 -5.523438 1.90625 -5.796875 C 1.925781 -6.046875 1.945312 -6.332031 1.96875 -6.65625 C 2 -6.976562 2.035156 -7.363281 2.078125 -7.8125 C 2.523438 -8.519531 2.988281 -9.21875 3.46875 -9.90625 C 3.945312 -10.601562 4.65625 -11.222656 5.59375 -11.765625 C 7.019531 -12.097656 8.09375 -12.265625 8.8125 -12.265625 C 9.144531 -12.265625 9.441406 -12.25 9.703125 -12.21875 C 9.960938 -12.1875 10.207031 -12.109375 10.4375 -11.984375 C 10.675781 -11.859375 10.910156 -11.691406 11.140625 -11.484375 C 11.378906 -11.285156 11.664062 -11.019531 12 -10.6875 C 12.25 -10.425781 12.4375 -10.234375 12.5625 -10.109375 C 12.695312 -9.984375 12.796875 -9.882812 12.859375 -9.8125 C 12.929688 -9.75 12.96875 -9.691406 12.96875 -9.640625 C 12.96875 -9.597656 12.96875 -9.535156 12.96875 -9.453125 C 12.96875 -8.648438 12.882812 -8 12.71875 -7.5 C 12.550781 -7.007812 12.238281 -6.609375 11.78125 -6.296875 C 11.320312 -5.984375 10.691406 -5.707031 9.890625 -5.46875 C 9.085938 -5.238281 8.046875 -4.976562 6.765625 -4.6875 L 6.5625 -4.6875 C 6.164062 -4.6875 5.453125 -4.597656 4.421875 -4.421875 C 5.222656 -2.054688 6.507812 -0.875 8.28125 -0.875 C 9.53125 -0.875 10.945312 -1.507812 12.53125 -2.78125 C 12.6875 -2.914062 12.890625 -2.984375 13.140625 -2.984375 C 13.828125 -2.984375 14.171875 -2.648438 14.171875 -1.984375 C 14.171875 -1.753906 14.101562 -1.539062 13.96875 -1.34375 Z M 10.765625 -8.84375 C 10.160156 -9.851562 9.476562 -10.359375 8.71875 -10.359375 C 8.382812 -10.359375 8.023438 -10.3125 7.640625 -10.21875 C 7.265625 -10.132812 6.898438 -10.015625 6.546875 -9.859375 C 6.203125 -9.703125 5.878906 -9.507812 5.578125 -9.28125 C 5.273438 -9.0625 5.023438 -8.804688 4.828125 -8.515625 C 4.734375 -8.335938 4.644531 -8.078125 4.5625 -7.734375 C 4.488281 -7.398438 4.398438 -7 4.296875 -6.53125 C 4.890625 -6.644531 5.550781 -6.722656 6.28125 -6.765625 C 7.007812 -6.816406 7.703125 -6.90625 8.359375 -7.03125 C 9.015625 -7.164062 9.566406 -7.367188 10.015625 -7.640625 C 10.460938 -7.910156 10.710938 -8.3125 10.765625 -8.84375 Z M 10.765625 -8.84375 "/></g></g></g><g fill="#000000" fill-opacity="1"><g transform="translate(67.919826, 24.674336)"><g/></g></g><g fill="#000000" fill-opacity="1"><g transform="translate(81.995953, 24.674336)"><g><path d="M 17.15625 -10.421875 C 17.113281 -8.503906 16.5 -6.726562 15.3125 -5.09375 C 14.957031 -4.6875 14.570312 -4.222656 14.15625 -3.703125 C 13.75 -3.179688 13.296875 -2.59375 12.796875 -1.9375 C 12.710938 -1.894531 12.507812 -1.753906 12.1875 -1.515625 C 11.863281 -1.285156 11.492188 -1.023438 11.078125 -0.734375 C 10.660156 -0.441406 10.242188 -0.179688 9.828125 0.046875 C 9.421875 0.285156 9.09375 0.414062 8.84375 0.4375 C 7.882812 0.550781 6.859375 0.851562 5.765625 1.34375 C 4.734375 1.34375 4.140625 0.972656 3.984375 0.234375 C 4.003906 0.0976562 4.015625 -0.0546875 4.015625 -0.234375 C 4.015625 -0.410156 4.015625 -0.613281 4.015625 -0.84375 C 4.015625 -1.957031 3.90625 -3.265625 3.6875 -4.765625 C 3.46875 -6.273438 3.359375 -7.9375 3.359375 -9.75 C 3.359375 -10.550781 3.398438 -11.503906 3.484375 -12.609375 C 3.578125 -13.722656 3.710938 -14.984375 3.890625 -16.390625 C 4.160156 -17.015625 4.71875 -17.328125 5.5625 -17.328125 C 5.945312 -17.328125 6.28125 -17.203125 6.5625 -16.953125 C 7.769531 -17.378906 8.945312 -17.59375 10.09375 -17.59375 C 10.820312 -17.59375 11.507812 -17.503906 12.15625 -17.328125 C 12.8125 -17.148438 13.398438 -16.925781 13.921875 -16.65625 C 14.453125 -16.382812 14.90625 -16.082031 15.28125 -15.75 C 15.664062 -15.414062 15.945312 -15.082031 16.125 -14.75 C 16.8125 -12.757812 17.15625 -11.316406 17.15625 -10.421875 Z M 14.8125 -11.265625 C 14.769531 -11.734375 14.691406 -12.144531 14.578125 -12.5 C 14.460938 -12.851562 14.285156 -13.175781 14.046875 -13.46875 C 13.816406 -13.757812 13.492188 -14.039062 13.078125 -14.3125 C 12.671875 -14.582031 12.144531 -14.863281 11.5 -15.15625 C 11.03125 -15.375 10.46875 -15.484375 9.8125 -15.484375 C 9.613281 -15.484375 9.335938 -15.457031 8.984375 -15.40625 C 8.628906 -15.363281 8.269531 -15.316406 7.90625 -15.265625 C 7.550781 -15.210938 7.234375 -15.160156 6.953125 -15.109375 C 6.671875 -15.066406 6.5 -15.046875 6.4375 -15.046875 C 6.28125 -15.046875 6.164062 -15.054688 6.09375 -15.078125 C 5.738281 -14.140625 5.5625 -12.117188 5.5625 -9.015625 C 5.5625 -8.742188 5.566406 -8.335938 5.578125 -7.796875 C 5.585938 -7.265625 5.617188 -6.640625 5.671875 -5.921875 C 5.734375 -5.210938 5.828125 -4.445312 5.953125 -3.625 C 6.078125 -2.8125 6.25 -1.992188 6.46875 -1.171875 C 7 -1.210938 8.25 -1.78125 10.21875 -2.875 C 10.488281 -3.007812 10.875 -3.296875 11.375 -3.734375 C 11.875 -4.171875 12.378906 -4.726562 12.890625 -5.40625 C 13.410156 -6.09375 13.859375 -6.890625 14.234375 -7.796875 C 14.617188 -8.703125 14.8125 -9.703125 14.8125 -10.796875 Z M 14.8125 -11.265625 "/></g></g></g><g fill="#000000" fill-opacity="1"><g transform="translate(101.166278, 24.674336)"><g><path d="M 13.96875 -1.34375 C 13.257812 -0.625 12.421875 -0.0078125 11.453125 0.5 C 10.492188 1.019531 9.515625 1.28125 8.515625 1.28125 C 8.085938 1.28125 7.113281 1.117188 5.59375 0.796875 C 5.195312 0.535156 4.773438 0.207031 4.328125 -0.1875 C 3.878906 -0.59375 3.46875 -1.054688 3.09375 -1.578125 C 2.726562 -2.109375 2.425781 -2.671875 2.1875 -3.265625 C 1.957031 -3.859375 1.84375 -4.476562 1.84375 -5.125 L 1.84375 -5.09375 C 1.863281 -5.289062 1.882812 -5.523438 1.90625 -5.796875 C 1.925781 -6.046875 1.945312 -6.332031 1.96875 -6.65625 C 2 -6.976562 2.035156 -7.363281 2.078125 -7.8125 C 2.523438 -8.519531 2.988281 -9.21875 3.46875 -9.90625 C 3.945312 -10.601562 4.65625 -11.222656 5.59375 -11.765625 C 7.019531 -12.097656 8.09375 -12.265625 8.8125 -12.265625 C 9.144531 -12.265625 9.441406 -12.25 9.703125 -12.21875 C 9.960938 -12.1875 10.207031 -12.109375 10.4375 -11.984375 C 10.675781 -11.859375 10.910156 -11.691406 11.140625 -11.484375 C 11.378906 -11.285156 11.664062 -11.019531 12 -10.6875 C 12.25 -10.425781 12.4375 -10.234375 12.5625 -10.109375 C 12.695312 -9.984375 12.796875 -9.882812 12.859375 -9.8125 C 12.929688 -9.75 12.96875 -9.691406 12.96875 -9.640625 C 12.96875 -9.597656 12.96875 -9.535156 12.96875 -9.453125 C 12.96875 -8.648438 12.882812 -8 12.71875 -7.5 C 12.550781 -7.007812 12.238281 -6.609375 11.78125 -6.296875 C 11.320312 -5.984375 10.691406 -5.707031 9.890625 -5.46875 C 9.085938 -5.238281 8.046875 -4.976562 6.765625 -4.6875 L 6.5625 -4.6875 C 6.164062 -4.6875 5.453125 -4.597656 4.421875 -4.421875 C 5.222656 -2.054688 6.507812 -0.875 8.28125 -0.875 C 9.53125 -0.875 10.945312 -1.507812 12.53125 -2.78125 C 12.6875 -2.914062 12.890625 -2.984375 13.140625 -2.984375 C 13.828125 -2.984375 14.171875 -2.648438 14.171875 -1.984375 C 14.171875 -1.753906 14.101562 -1.539062 13.96875 -1.34375 Z M 10.765625 -8.84375 C 10.160156 -9.851562 9.476562 -10.359375 8.71875 -10.359375 C 8.382812 -10.359375 8.023438 -10.3125 7.640625 -10.21875 C 7.265625 -10.132812 6.898438 -10.015625 6.546875 -9.859375 C 6.203125 -9.703125 5.878906 -9.507812 5.578125 -9.28125 C 5.273438 -9.0625 5.023438 -8.804688 4.828125 -8.515625 C 4.734375 -8.335938 4.644531 -8.078125 4.5625 -7.734375 C 4.488281 -7.398438 4.398438 -7 4.296875 -6.53125 C 4.890625 -6.644531 5.550781 -6.722656 6.28125 -6.765625 C 7.007812 -6.816406 7.703125 -6.90625 8.359375 -7.03125 C 9.015625 -7.164062 9.566406 -7.367188 10.015625 -7.640625 C 10.460938 -7.910156 10.710938 -8.3125 10.765625 -8.84375 Z M 10.765625 -8.84375 "/></g></g></g><g fill="#000000" fill-opacity="1"><g transform="translate(117.186238, 24.674336)"><g><path d="M 10.6875 -12.375 C 10.863281 -12.238281 10.953125 -11.976562 10.953125 -11.59375 C 10.953125 -10.925781 10.675781 -10.59375 10.125 -10.59375 L 9.984375 -10.59375 C 9.984375 -10.59375 9.820312 -10.570312 9.5 -10.53125 C 9.175781 -10.5 8.8125 -10.460938 8.40625 -10.421875 C 8.007812 -10.378906 7.625 -10.328125 7.25 -10.265625 C 6.882812 -10.210938 6.671875 -10.164062 6.609375 -10.125 L 6.609375 -9.78125 C 6.609375 -9.539062 6.582031 -9.210938 6.53125 -8.796875 C 6.488281 -8.378906 6.46875 -8.003906 6.46875 -7.671875 C 6.46875 -7.554688 6.472656 -7.441406 6.484375 -7.328125 C 6.492188 -7.222656 6.507812 -7.113281 6.53125 -7 C 6.445312 -6.738281 6.40625 -6.296875 6.40625 -5.671875 C 6.425781 -4.816406 6.445312 -4.179688 6.46875 -3.765625 C 6.488281 -3.359375 6.554688 -3.050781 6.671875 -2.84375 C 6.785156 -2.644531 6.972656 -2.488281 7.234375 -2.375 C 7.503906 -2.269531 7.894531 -2.101562 8.40625 -1.875 C 8.945312 -1.695312 9.21875 -1.382812 9.21875 -0.9375 C 9.21875 -0.644531 9.109375 -0.398438 8.890625 -0.203125 C 8.679688 -0.00390625 8.410156 0.09375 8.078125 0.09375 C 7.921875 0.09375 7.6875 0.0625 7.375 0 C 7.0625 -0.0625 6.742188 -0.15625 6.421875 -0.28125 C 6.097656 -0.40625 5.800781 -0.550781 5.53125 -0.71875 C 5.257812 -0.882812 5.082031 -1.070312 5 -1.28125 C 4.726562 -1.851562 4.515625 -2.410156 4.359375 -2.953125 C 4.203125 -3.503906 4.125 -4.082031 4.125 -4.6875 C 4.125 -5.3125 4.132812 -5.78125 4.15625 -6.09375 C 4.175781 -6.40625 4.195312 -6.648438 4.21875 -6.828125 C 4.238281 -7.015625 4.257812 -7.179688 4.28125 -7.328125 C 4.3125 -7.472656 4.328125 -7.675781 4.328125 -7.9375 C 4.328125 -8.125 4.320312 -8.3125 4.3125 -8.5 C 4.300781 -8.6875 4.296875 -8.867188 4.296875 -9.046875 C 4.296875 -9.296875 4.300781 -9.503906 4.3125 -9.671875 C 4.320312 -9.835938 4.335938 -9.976562 4.359375 -10.09375 C 3.753906 -10.039062 2.859375 -9.859375 1.671875 -9.546875 C 1.316406 -9.546875 1.003906 -9.632812 0.734375 -9.8125 C 0.460938 -10 0.328125 -10.257812 0.328125 -10.59375 C 0.328125 -10.675781 0.359375 -10.796875 0.421875 -10.953125 C 0.492188 -11.109375 0.613281 -11.257812 0.78125 -11.40625 C 0.945312 -11.550781 1.179688 -11.675781 1.484375 -11.78125 C 1.785156 -11.882812 2.160156 -11.9375 2.609375 -11.9375 L 2.8125 -11.9375 C 3.300781 -11.9375 3.875 -12.035156 4.53125 -12.234375 C 4.53125 -12.253906 4.535156 -12.347656 4.546875 -12.515625 C 4.554688 -12.679688 4.566406 -12.867188 4.578125 -13.078125 C 4.585938 -13.296875 4.597656 -13.503906 4.609375 -13.703125 C 4.617188 -13.910156 4.625 -14.054688 4.625 -14.140625 L 4.625 -14.3125 C 4.644531 -14.5625 4.6875 -14.910156 4.75 -15.359375 C 4.820312 -15.816406 4.925781 -16.273438 5.0625 -16.734375 C 5.195312 -17.191406 5.367188 -17.585938 5.578125 -17.921875 C 5.796875 -18.265625 6.0625 -18.4375 6.375 -18.4375 C 6.96875 -18.4375 7.332031 -18.164062 7.46875 -17.625 C 7.46875 -17.582031 7.441406 -17.425781 7.390625 -17.15625 C 7.335938 -16.894531 7.273438 -16.59375 7.203125 -16.25 C 7.140625 -15.914062 7.070312 -15.59375 7 -15.28125 C 6.9375 -14.96875 6.90625 -14.769531 6.90625 -14.6875 C 6.90625 -14.632812 6.894531 -14.507812 6.875 -14.3125 C 6.851562 -14.113281 6.832031 -13.890625 6.8125 -13.640625 C 6.800781 -13.390625 6.785156 -13.140625 6.765625 -12.890625 C 6.742188 -12.648438 6.734375 -12.476562 6.734375 -12.375 C 6.691406 -12.375 6.992188 -12.40625 7.640625 -12.46875 C 7.753906 -12.46875 7.859375 -12.472656 7.953125 -12.484375 C 8.054688 -12.492188 8.15625 -12.5 8.25 -12.5 C 8.3125 -12.5 8.363281 -12.492188 8.40625 -12.484375 C 8.457031 -12.472656 8.503906 -12.46875 8.546875 -12.46875 C 8.742188 -12.488281 8.929688 -12.503906 9.109375 -12.515625 C 9.296875 -12.523438 9.46875 -12.53125 9.625 -12.53125 C 10.113281 -12.53125 10.46875 -12.476562 10.6875 -12.375 Z M 10.6875 -12.375 "/></g></g></g><g fill="#000000" fill-opacity="1"><g transform="translate(128.815784, 24.674336)"><g><path d="M 14.484375 -3.359375 C 14.796875 -3.148438 14.953125 -2.898438 14.953125 -2.609375 C 14.953125 -2.296875 14.796875 -1.992188 14.484375 -1.703125 C 14.171875 -1.421875 13.867188 -1.28125 13.578125 -1.28125 C 12.878906 -1.519531 12.28125 -1.972656 11.78125 -2.640625 C 11.28125 -3.316406 10.941406 -4.046875 10.765625 -4.828125 C 10.609375 -4.492188 10.421875 -4.070312 10.203125 -3.5625 C 9.992188 -3.0625 9.71875 -2.585938 9.375 -2.140625 C 9.039062 -1.691406 8.628906 -1.304688 8.140625 -0.984375 C 7.648438 -0.660156 7.035156 -0.5 6.296875 -0.5 C 5.921875 -0.5 5.421875 -0.566406 4.796875 -0.703125 C 4.097656 -1.191406 3.550781 -1.585938 3.15625 -1.890625 C 2.769531 -2.191406 2.476562 -2.476562 2.28125 -2.75 C 2.082031 -3.019531 1.957031 -3.320312 1.90625 -3.65625 C 1.863281 -3.988281 1.84375 -4.4375 1.84375 -5 C 1.84375 -5.46875 1.914062 -5.984375 2.0625 -6.546875 C 2.207031 -7.117188 2.410156 -7.695312 2.671875 -8.28125 C 2.941406 -8.863281 3.28125 -9.429688 3.6875 -9.984375 C 4.09375 -10.546875 4.5625 -11.0625 5.09375 -11.53125 C 6.070312 -11.863281 6.84375 -12.109375 7.40625 -12.265625 C 7.96875 -12.421875 8.347656 -12.5 8.546875 -12.5 C 8.992188 -13.007812 9.460938 -13.265625 9.953125 -13.265625 C 10.222656 -13.265625 10.457031 -13.109375 10.65625 -12.796875 C 10.851562 -12.484375 11.035156 -12.078125 11.203125 -11.578125 C 11.378906 -11.078125 11.515625 -10.523438 11.609375 -9.921875 C 11.710938 -9.316406 11.796875 -8.734375 11.859375 -8.171875 C 11.929688 -8.066406 11.988281 -7.941406 12.03125 -7.796875 C 12.070312 -7.648438 12.117188 -7.460938 12.171875 -7.234375 L 12.375 -6.296875 C 12.5 -5.648438 12.75 -5.09375 13.125 -4.625 C 13.507812 -4.15625 13.960938 -3.734375 14.484375 -3.359375 Z M 9.75 -7.78125 C 9.707031 -7.976562 9.628906 -8.3125 9.515625 -8.78125 C 9.398438 -9.25 9.253906 -9.851562 9.078125 -10.59375 C 8.816406 -10.519531 8.523438 -10.488281 8.203125 -10.5 C 7.890625 -10.519531 7.554688 -10.460938 7.203125 -10.328125 C 6.847656 -10.191406 6.460938 -9.941406 6.046875 -9.578125 C 5.628906 -9.222656 5.210938 -8.664062 4.796875 -7.90625 C 4.253906 -6.925781 3.984375 -5.890625 3.984375 -4.796875 C 4.117188 -4.503906 4.242188 -4.25 4.359375 -4.03125 C 4.472656 -3.820312 4.613281 -3.632812 4.78125 -3.46875 C 4.945312 -3.300781 5.148438 -3.140625 5.390625 -2.984375 C 5.640625 -2.828125 5.953125 -2.660156 6.328125 -2.484375 C 6.671875 -2.546875 6.957031 -2.617188 7.1875 -2.703125 C 7.425781 -2.796875 7.632812 -2.9375 7.8125 -3.125 C 7.988281 -3.320312 8.15625 -3.566406 8.3125 -3.859375 C 8.46875 -4.148438 8.65625 -4.53125 8.875 -5 C 9.457031 -6.289062 9.75 -7.21875 9.75 -7.78125 Z M 9.75 -7.78125 "/></g></g></g><g fill="#000000" fill-opacity="1"><g transform="translate(144.433567, 24.674336)"><g><path d="M 6.671875 -15.28125 C 6.671875 -14.90625 6.609375 -14.597656 6.484375 -14.359375 C 6.359375 -14.128906 6.195312 -13.957031 6 -13.84375 C 5.800781 -13.726562 5.582031 -13.65625 5.34375 -13.625 C 5.113281 -13.59375 4.882812 -13.578125 4.65625 -13.578125 C 4.34375 -13.796875 4.078125 -14.046875 3.859375 -14.328125 C 3.648438 -14.609375 3.546875 -14.882812 3.546875 -15.15625 C 3.546875 -15.351562 3.632812 -15.578125 3.8125 -15.828125 C 4 -16.085938 4.160156 -16.34375 4.296875 -16.59375 L 5.828125 -16.453125 C 6.390625 -16.316406 6.671875 -15.925781 6.671875 -15.28125 Z M 5.53125 -10.421875 L 5.53125 -10.296875 C 5.53125 -10.085938 5.5 -9.753906 5.4375 -9.296875 C 5.382812 -8.835938 5.300781 -8.238281 5.1875 -7.5 C 5.21875 -7.394531 5.234375 -7.238281 5.234375 -7.03125 C 5.234375 -6.90625 5.1875 -6.601562 5.09375 -6.125 C 5 -5.65625 4.953125 -5.253906 4.953125 -4.921875 C 4.953125 -4.859375 4.957031 -4.789062 4.96875 -4.71875 C 4.988281 -4.65625 5 -4.601562 5 -4.5625 C 4.925781 -4.25 4.890625 -3.800781 4.890625 -3.21875 C 4.890625 -2.96875 4.894531 -2.703125 4.90625 -2.421875 C 4.914062 -2.148438 4.929688 -1.859375 4.953125 -1.546875 C 4.773438 -0.890625 4.429688 -0.5625 3.921875 -0.5625 C 3.472656 -0.5625 3.164062 -0.800781 3 -1.28125 C 2.832031 -1.769531 2.75 -2.40625 2.75 -3.1875 C 2.75 -3.96875 2.773438 -4.679688 2.828125 -5.328125 C 2.890625 -5.972656 2.960938 -6.582031 3.046875 -7.15625 C 3.140625 -7.726562 3.234375 -8.273438 3.328125 -8.796875 C 3.429688 -9.316406 3.53125 -9.835938 3.625 -10.359375 C 3.84375 -10.691406 4.15625 -10.859375 4.5625 -10.859375 C 4.976562 -10.859375 5.300781 -10.710938 5.53125 -10.421875 Z M 5.53125 -10.421875 "/></g></g></g><g fill="#000000" fill-opacity="1"><g transform="translate(153.784135, 24.674336)"><g><path d="M 6.4375 -17.859375 C 6.414062 -17.617188 6.367188 -17.316406 6.296875 -16.953125 C 6.234375 -16.597656 6.15625 -16.234375 6.0625 -15.859375 C 5.976562 -15.492188 5.894531 -15.144531 5.8125 -14.8125 C 5.738281 -14.476562 5.675781 -14.210938 5.625 -14.015625 C 5.65625 -13.898438 5.671875 -13.796875 5.671875 -13.703125 C 5.671875 -13.617188 5.671875 -13.519531 5.671875 -13.40625 C 5.671875 -13.226562 5.644531 -12.992188 5.59375 -12.703125 C 5.550781 -12.410156 5.492188 -12.109375 5.421875 -11.796875 C 5.359375 -11.484375 5.300781 -11.1875 5.25 -10.90625 C 5.207031 -10.625 5.1875 -10.40625 5.1875 -10.25 C 5.1875 -10.03125 5.191406 -9.707031 5.203125 -9.28125 C 5.222656 -8.851562 5.234375 -8.390625 5.234375 -7.890625 C 5.234375 -7.390625 5.207031 -6.867188 5.15625 -6.328125 C 5.113281 -5.796875 5.035156 -5.316406 4.921875 -4.890625 C 4.941406 -4.617188 4.953125 -4.347656 4.953125 -4.078125 C 4.953125 -3.816406 4.976562 -3.535156 5.03125 -3.234375 C 5.09375 -2.929688 5.195312 -2.597656 5.34375 -2.234375 C 5.488281 -1.878906 5.726562 -1.503906 6.0625 -1.109375 C 6 -0.859375 5.789062 -0.625 5.4375 -0.40625 C 5.09375 -0.195312 4.742188 -0.09375 4.390625 -0.09375 C 3.921875 -0.09375 3.535156 -0.351562 3.234375 -0.875 C 2.929688 -1.40625 2.78125 -2.375 2.78125 -3.78125 C 2.78125 -4.03125 2.796875 -4.25 2.828125 -4.4375 C 2.859375 -4.625 2.875 -4.851562 2.875 -5.125 C 2.875 -5.6875 2.8125 -6.359375 2.6875 -7.140625 C 2.769531 -7.359375 2.835938 -7.671875 2.890625 -8.078125 C 2.953125 -8.484375 2.992188 -8.878906 3.015625 -9.265625 C 3.035156 -9.660156 3.050781 -9.992188 3.0625 -10.265625 C 3.070312 -10.546875 3.078125 -10.675781 3.078125 -10.65625 C 3.078125 -10.675781 3.101562 -10.851562 3.15625 -11.1875 C 3.21875 -11.53125 3.28125 -11.9375 3.34375 -12.40625 C 3.414062 -12.875 3.476562 -13.347656 3.53125 -13.828125 C 3.59375 -14.304688 3.625 -14.691406 3.625 -14.984375 L 3.625 -15.25 C 3.6875 -15.65625 3.757812 -16.101562 3.84375 -16.59375 C 3.9375 -17.082031 4.039062 -17.617188 4.15625 -18.203125 C 4.351562 -18.535156 4.6875 -18.703125 5.15625 -18.703125 C 5.738281 -18.703125 6.164062 -18.421875 6.4375 -17.859375 Z M 6.4375 -17.859375 "/></g></g></g><g fill="#000000" fill-opacity="1"><g transform="translate(162.900107, 24.674336)"><g><path d="M 11.1875 -3.65625 C 11.125 -3.007812 10.890625 -2.394531 10.484375 -1.8125 L 9.28125 -0.09375 C 9.082031 0.0820312 8.769531 0.226562 8.34375 0.34375 C 7.914062 0.46875 7.484375 0.566406 7.046875 0.640625 C 6.617188 0.722656 6.226562 0.785156 5.875 0.828125 C 5.53125 0.878906 5.347656 0.90625 5.328125 0.90625 C 5.109375 0.90625 4.820312 0.863281 4.46875 0.78125 C 4.125 0.707031 3.785156 0.625 3.453125 0.53125 C 3.117188 0.445312 2.828125 0.363281 2.578125 0.28125 C 2.335938 0.207031 2.203125 0.171875 2.171875 0.171875 L 2.140625 0.171875 C 1.898438 0.148438 1.640625 0.09375 1.359375 0 C 1.078125 -0.09375 0.804688 -0.203125 0.546875 -0.328125 C 0.296875 -0.460938 0.0859375 -0.613281 -0.078125 -0.78125 C -0.242188 -0.945312 -0.328125 -1.132812 -0.328125 -1.34375 C -0.328125 -1.582031 -0.207031 -1.832031 0.03125 -2.09375 C 0.28125 -2.351562 0.523438 -2.484375 0.765625 -2.484375 C 3.023438 -1.585938 4.828125 -1.140625 6.171875 -1.140625 C 6.660156 -1.140625 7.078125 -1.238281 7.421875 -1.4375 C 7.765625 -1.644531 8.03125 -1.859375 8.21875 -2.078125 L 8.921875 -3.359375 C 8.921875 -3.640625 8.832031 -3.925781 8.65625 -4.21875 C 8.488281 -4.507812 8.265625 -4.769531 7.984375 -5 C 7.710938 -5.238281 7.394531 -5.445312 7.03125 -5.625 C 6.675781 -5.8125 6.3125 -5.9375 5.9375 -6 C 5.507812 -6.0625 5.078125 -6.179688 4.640625 -6.359375 C 4.203125 -6.546875 3.796875 -6.757812 3.421875 -7 C 3.054688 -7.25 2.753906 -7.523438 2.515625 -7.828125 C 2.285156 -8.128906 2.160156 -8.457031 2.140625 -8.8125 C 2.117188 -8.8125 2.097656 -9.238281 2.078125 -10.09375 C 2.117188 -10.425781 2.160156 -10.691406 2.203125 -10.890625 C 2.253906 -11.085938 2.359375 -11.269531 2.515625 -11.4375 C 2.671875 -11.613281 2.910156 -11.800781 3.234375 -12 C 3.554688 -12.195312 4.019531 -12.488281 4.625 -12.875 C 4.800781 -12.894531 5.128906 -12.921875 5.609375 -12.953125 C 6.085938 -12.984375 6.742188 -13.046875 7.578125 -13.140625 C 7.929688 -13.140625 8.847656 -12.867188 10.328125 -12.328125 C 10.546875 -12.128906 10.65625 -11.828125 10.65625 -11.421875 C 10.65625 -10.734375 10.421875 -10.390625 9.953125 -10.390625 C 9.929688 -10.390625 9.910156 -10.394531 9.890625 -10.40625 C 9.867188 -10.414062 9.832031 -10.421875 9.78125 -10.421875 L 8.578125 -10.828125 C 7.972656 -11.003906 7.457031 -11.09375 7.03125 -11.09375 C 6.40625 -11.09375 5.910156 -11.054688 5.546875 -10.984375 C 5.179688 -10.921875 4.90625 -10.835938 4.71875 -10.734375 C 4.539062 -10.640625 4.414062 -10.535156 4.34375 -10.421875 C 4.28125 -10.304688 4.238281 -10.207031 4.21875 -10.125 C 4.21875 -10.050781 4.210938 -9.988281 4.203125 -9.9375 C 4.191406 -9.882812 4.1875 -9.820312 4.1875 -9.75 C 4.1875 -8.882812 4.546875 -8.347656 5.265625 -8.140625 C 8.796875 -7.429688 10.769531 -5.9375 11.1875 -3.65625 Z M 11.1875 -3.65625 "/></g></g></g></g></g><g clip-path="url(#77384b2932)"><g clip-path="url(#3ff43898e8)"><g clip-path="url(#ff0638629c)"><g clip-path="url(#e59a68abe9)"><path fill="#000000" d="M 6.132812 64.453125 C 6.070312 61.8125 6.238281 59.128906 5.6875 56.53125 C 5.582031 56.023438 4.359375 52.550781 4.738281 52.378906 C 5.195312 52.578125 5.847656 52.582031 6.058594 53.097656 C 6.554688 55.042969 7.328125 57.035156 7.457031 59.054688 C 7.464844 59.199219 7.222656 60.5625 7.691406 60.117188 C 7.9375 59.882812 8.371094 58.722656 8.636719 58.289062 C 10.671875 54.984375 13.179688 51.152344 15.613281 48.15625 C 20.9375 41.605469 32.417969 32.179688 40.859375 30.960938 C 41.429688 30.878906 42.882812 30.699219 42.640625 31.714844 C 42.484375 32.371094 41.894531 32.078125 41.441406 32.183594 C 28.40625 35.226562 17.402344 46.738281 10.519531 57.886719 C 10.089844 58.585938 9.628906 59.390625 9.332031 60.15625 C 9.40625 60.375 13.230469 58.410156 13.558594 58.289062 C 14.296875 58.023438 16.308594 57.535156 16.910156 57.945312 C 17.34375 58.242188 17.222656 59.84375 16.941406 60.230469 C 16.71875 60.542969 14.859375 60.847656 14.335938 61.03125 C 13.25 61.410156 10.488281 62.574219 9.554688 63.226562 C 9.101562 63.542969 7.578125 65.113281 7.1875 65.191406 C 6.792969 65.269531 6.335938 64.777344 6.140625 64.453125 Z M 6.132812 64.453125 " fill-opacity="1" fill-rule="nonzero"/></g></g></g></g></svg>